# xmcd
#
# Track frame offsets: 
#        150
#        12413
#        26321
#        39507
#        54849
#        68201
#        78625
#        92511
#        105826
#        123169
#        134639
#        151239
#        167563
#        180667
#        193839
#        206313
#        217720
#        234654
#        250083
#        264945
#        281181
#        295437
#        308343
#
# Disc length: 4232 seconds
#
# Revision: 0
# Processed by: cddbd v1.5.2PL0 Copyright (c) Steve Scherf et al.
# Submitted via: ExactAudioCopyFreeDBPlugin 1.0
#
DISCID=2f108617
DTITLE=Barbara Mandrell - Ultimate Collection
DYEAR=2001
DGENRE=Country
TTITLE0=The Midnight Oil
TTITLE1=Standing Room Only
TTITLE2=Married But Not To Each Other
TTITLE3=Woman To Woman
TTITLE4=Tonight
TTITLE5=Sleeping Single In A Double Bed
TTITLE6=(If Loving You Is Wrong) I Don't Wanna Be Right
TTITLE7=Fooled By A Feeling
TTITLE8=Years
TTITLE9=Crackers
TTITLE10=The Best Of Strangers
TTITLE11=I Was Country When Country Wasn't Cool
TTITLE12=Till You're Gone
TTITLE13=In Times Like These
TTITLE14=One Of A Kind Pair Of Fools
TTITLE15=Happy Birthday Dear Heartache
TTITLE16=Only A Lonely Heart Knows
TTITLE17=There's No Love In Tennessee
TTITLE18=Angel In Your Arms
TTITLE19=Fast Lanes And Country Roads
TTITLE20=No One Mends A Broken Heart Like You
TTITLE21=I Wish That I Could Fall In Love Today
TTITLE22=Tonight My Baby's Coming Home
EXTD=
EXTT0=
EXTT1=
EXTT2=
EXTT3=
EXTT4=
EXTT5=
EXTT6=
EXTT7=
EXTT8=
EXTT9=
EXTT10=
EXTT11=
EXTT12=
EXTT13=
EXTT14=
EXTT15=
EXTT16=
EXTT17=
EXTT18=
EXTT19=
EXTT20=
EXTT21=
EXTT22=
PLAYORDER=
